<?xml version="1.0" encoding="utf-8"?>
<!-- Generator: Adobe Illustrator 19.0.0, SVG Export Plug-In . SVG Version: 6.00 Build 0)  -->
<svg version="1.1" id="Layer_1" xmlns="http://www.w3.org/2000/svg" xmlns:xlink="http://www.w3.org/1999/xlink" x="0px" y="0px"
	 viewBox="0 0 647.8 453.6" style="enable-background:new 0 0 647.8 453.6;" xml:space="preserve">
<style type="text/css">
	.st0{fill:#FFFFFF;}
</style>
<g id="logo">
	<g>
		<path class="st0" d="M95.8,226.1c0,10.1-3.2,18.9-9.6,26.4c-5.7,6.7-13.3,11.9-23,15.6c-8.8,3.4-17.9,5.1-27.4,5.1
			c-0.4,0-0.6,0-0.8,0c-0.5,0-1,0-1.7,0c-0.6,0-0.9-0.2-0.9-0.6c0-0.2,0.3-0.6,0.8-1.1c2.4-2,4.2-4.6,5.4-7.9
			c1.2-3.3,1.8-7.5,1.8-12.6v-14.8c-6.8-0.7-12.1-3-15.9-6.9c-4.3-4.3-6.4-10.3-6.4-17.9c0-7.8,3.7-14.3,11.1-19.6
			c7-4.9,15.1-7.4,24.2-7.4c12,0,22,3.7,29.9,11C91.6,203.2,95.8,213.4,95.8,226.1z M87.2,223c0-9.7-3.1-17.9-9.2-24.5
			c-6.4-6.9-14.6-10.3-24.6-10.3c-8.1,0-15.1,2-21,6.1c-6.5,4.5-9.8,10.3-9.8,17.4c0,6.3,1.7,11.2,5.1,14.7c2.9,3,7.2,4.9,12.7,5.9
			V210c0-1.4-0.5-2.4-1.5-2.9c-0.5-0.2-0.9-0.3-1.3-0.5c-0.4-0.2-0.6-0.4-0.6-0.8c0-0.3,0.1-0.5,0.4-0.7c0.3-0.2,1.1-0.5,2.5-1.1
			c1.4-0.6,2.9-1.2,4.4-1.9c1.1-0.6,2.8-1.5,5-2.7c0.7-0.4,1.3-0.7,1.8-0.9c0.6-0.2,1-0.1,1,0.5c0,0.2,0,0.4-0.1,0.5
			c-1,1.3-1.7,2.5-2.2,3.5c-0.5,1-0.8,1.9-0.8,2.8v26.1c2.5,0,5.4-1.3,8.6-3.8c3.5-2.9,5.3-5.9,5.3-9c0-1.3-0.3-2.4-0.8-3.2
			c-0.5-0.8-1.2-1.3-2-1.3c-0.9,0-1.6,0.1-2.1,0.3c-0.5,0.2-0.8,0.4-0.9,0.7c-0.2,0.5-0.5,0.8-0.7,0.8c-0.2,0-0.4-0.2-0.5-0.5
			c0-0.2-0.1-0.4-0.1-0.8c0-0.4,0.1-0.7,0.2-1.1c0.9-2.8,2.9-4.1,5.8-4.1c2.3,0,4,0.8,5.2,2.5c1.1,1.5,1.6,3.4,1.6,5.8
			c0,4-2.1,7.8-6.2,11.5c-4.1,3.6-8.6,5.8-13.4,6.4v14c0,3.6-0.6,7-1.7,10.3c-1.1,3.3-2.6,6-4.4,8.2c7.2,0,14.2-1.7,20.7-5.2
			c7-3.7,12.6-8.8,16.7-15.4C84.9,240.6,87.2,232.3,87.2,223z"/>
		<path class="st0" d="M185.1,200.7c0,3.4-1.1,6.4-3.2,8.9c-2.1,2.5-5.3,4.8-9.7,6.9c-3.2,1.5-7.1,2.8-11.5,3.8
			c-2.3,0.5-6.2,1.2-11.7,2c-5.5,0.8-9.5,1.6-11.9,2.2c-4.2,1.1-8.2,3.2-12.1,6.1c-3.2,2.5-5.8,5.1-7.8,8
			c1.3,7.3,4.8,13.8,10.7,19.7c6.5,6.5,13.8,9.7,21.9,9.7c5.8,0,10.7-1.1,14.7-3.3c4-2.2,6-5.2,6-8.8c0-1.2-0.1-2.2-0.4-3.1
			c-0.3-0.9-0.5-1.6-0.7-2.3c-0.1-0.2-0.1-0.4,0-0.6c0.1-0.2,0.4-0.2,0.7-0.2c1.1,0.2,2.2,0.7,3.2,1.7c1.4,1.3,2.1,3,2.1,4.9
			c0,5.1-3,9.3-8.9,12.6c-5.4,3-11.7,4.5-19,4.5c-11.8,0-21.3-4.1-28.7-12.3c-7.5-8.3-11.2-19.1-11.2-32.5
			c0-11.8,3.9-22.1,11.6-30.7c8-8.8,17.7-13.2,29.1-13.2c5,0,9.4,1,13,2.9c4,2.2,6.1,5.1,6.1,8.7c0,1.9-0.6,3.5-1.8,4.8
			c-1.2,1.3-2.8,2.2-4.8,2.5c-0.2,0-0.4,0.1-0.6,0.1c-0.3,0-0.5,0-0.7,0c-0.8,0-1.5-0.1-2.1-0.2c-0.6-0.1-1.1-0.4-1.6-0.7
			c-0.4-0.2-0.5-0.4-0.5-0.6c0-0.2,0.2-0.5,0.5-0.7c0.8-0.6,1.4-1,1.6-1.4c0.7-0.8,1.1-1.9,1.3-3.2c0-0.2,0.1-0.3,0.1-0.4
			c0-0.2,0-0.3,0-0.4c0-2.2-1.4-4-4.2-5.3c-2.3-1.1-5-1.6-8-1.6c-4.6,0-8.9,1-12.8,2.9c-3.9,1.9-7.3,4.7-10.3,8.4
			c-2.8,3.4-4.8,7.4-6.1,11.8c-1.3,4.4-1.9,9.3-1.9,14.6c0,1.1,0,2.2,0.1,3.4c0.1,1.2,0.2,2.6,0.3,4.2c1.5-2.1,3.8-4.5,6.9-7.3
			c4.2-3.7,8.1-6.2,11.8-7.6c3.2-1.2,6.5-2.1,9.9-2.8c1.9-0.4,5.1-0.8,9.7-1.4c4.6-0.6,8.2-1.1,11-1.6c4.4-0.8,7.8-1.9,10.2-3.1
			c3.6-1.9,5.5-4.4,5.5-7.5c0-2.1-0.6-3.5-1.8-4.2c-0.3-0.2-0.9-0.4-1.7-0.4c-0.5,0-0.8,0.1-1.1,0.2c-0.4,0.4-0.8,0.5-1,0.5
			c-0.2,0-0.3-0.2-0.3-0.6c0,0,0.1-0.4,0.2-1c0.1-0.6,0.6-1.3,1.5-2c0.8-0.7,1.8-1,2.9-1c1.7,0,3,0.6,4,1.9
			C184.6,197.5,185.1,199,185.1,200.7z"/>
		<path class="st0" d="M256.9,252.2c0,6-2.1,10.9-6.2,15c-4.1,4-9.3,6-15.4,6c-3,0-6.2-0.6-9.6-1.8c-7.8-2.6-13-3.9-15.6-3.9
			c-2.9,0-5.3,0.4-7.1,1.1c-1.8,0.7-3.3,1.9-4.5,3.4c-0.3,0.3-0.6,0.5-0.7,0.5c-0.1,0-0.3-0.1-0.5-0.4c-0.3-0.5-0.6-1-0.8-1.3
			c-0.4-0.6-0.9-1.2-1.6-1.8c-0.7-0.6-1.4-1-2.2-1.3c-0.2-0.1-0.8-0.3-1.8-0.5c-0.4-0.1-0.5-0.2-0.5-0.3c0-0.1,0.1-0.3,0.4-0.5
			c3.9-2.7,6.8-5.9,8.7-9.8c1.6-3.2,2.4-6.8,2.4-10.6v-53.6c0-0.8-0.6-1.6-1.8-2.6c-0.9-0.7-1.8-1.4-2.7-2.1
			c-0.1-0.2-0.2-0.4-0.1-0.7c0.1-0.3,0.4-0.5,0.9-0.5c0.4,0,1.6,0,3.7,0.2c2,0.1,3.4,0.2,4.3,0.2c1.6,0,3.3-0.1,5-0.2
			c1.7-0.1,2.6-0.2,2.8-0.2c0.7,0,1.1,0.2,1.1,0.7c0,0.2-0.1,0.5-0.2,0.7c-0.1,0.1-0.9,0.8-2.5,2c-1.3,1-1.9,1.8-1.9,2.6v48
			c0,5.7-1.3,11-3.8,16c-1.9,3.7-4.2,6.9-7,9.6c2.1-1.4,4.4-2.5,6.8-3.5c3.1-1.2,5.9-1.8,8.6-1.8c2.8,0,7.8,1.3,15.2,3.9
			c3.5,1.3,6.7,1.9,9.6,1.9c3.7,0,6.8-1.2,9.2-3.6c2.7-2.6,4-6,4-10.4c0-4.6-1.1-8.3-3.4-11.2c-2.3-2.9-5.3-4.3-9.1-4.3
			c-2.5,0-4.5,0.6-6,1.7s-2.3,2.7-2.3,4.7c0,1.6,0.4,2.8,1.3,3.5c0.7,0.6,1.6,0.8,2.8,0.8c0.4,0,0.9-0.1,1.4-0.3
			c0.5-0.2,0.9-0.3,1.3-0.4c0.3-0.2,0.4-0.1,0.5,0.1c0,0.2,0,0.5,0,0.7c0,1.3-0.7,2.4-2.2,3.4c-1.4,1-3,1.5-4.8,1.5
			c-2.5,0-4.6-0.9-6.2-2.6c-1.6-1.7-2.4-4-2.4-6.9c0-3.4,1.4-6.1,4.3-8.2c2.9-2.1,6.2-3.1,9.9-3.1c5.4,0,9.8,1.9,13.4,5.8
			C255.2,241.7,256.9,246.5,256.9,252.2z"/>
		<path class="st0" d="M282.8,270c0.1,0.1,0.1,0.2,0.2,0.4c0,0.1,0.1,0.2,0.1,0.3c0,0.4-0.4,0.7-1.1,0.7c-0.4,0-1.6,0-3.6-0.2
			s-3.4-0.2-4.2-0.2c-1.3,0-3.2,0.1-5.8,0.4c-1,0.1-1.7,0.1-2.1,0.1c-0.7,0-1-0.2-1-0.7c0-0.2,0.1-0.4,0.2-0.5
			c0.1-0.2,1-0.9,2.6-2.2c1.3-1,1.9-1.8,1.9-2.6v-73c0-0.8-0.6-1.6-1.8-2.6c-0.9-0.7-1.8-1.4-2.7-2.1c-0.1-0.2-0.2-0.4-0.1-0.7
			c0.1-0.3,0.4-0.5,0.9-0.5c0.4,0,1.6,0,3.6,0.2c2,0.1,3.4,0.2,4.2,0.2c1.6,0,3.3-0.1,4.9-0.2c1.7-0.1,2.6-0.2,2.8-0.2
			c0.7,0,1.1,0.2,1.1,0.7c0,0.2-0.1,0.5-0.2,0.7c-0.1,0.1-0.9,0.8-2.5,2c-1.3,1-1.9,1.8-1.9,2.6v73.1c0,0.8,0.6,1.6,1.8,2.5
			C281.9,269.2,282.7,269.9,282.8,270z"/>
		<path class="st0" d="M372.3,185.7c0,1.4-0.5,2.6-1.5,3.7c-0.4,0.5-1.3,1.2-2.5,2c-0.2,0.1-0.4,0.2-0.5,0.2c-0.3,0-0.4-0.2-0.3-0.7
			c0.2-0.5,0.4-1,0.5-1.3c0.1-0.3,0.2-0.8,0.2-1.3c0-0.7-0.1-1.4-0.4-2.1c-0.4-1.2-1.2-2.1-2.4-2.7c-1.1-0.6-2.4-0.9-3.8-0.9
			c-2.6,0-4.9,0.9-6.9,2.8c-2,1.9-3,4.1-3,6.7c0,1.9,0.6,3.7,1.7,5.4c0.4,0.6,0.9,1.1,1.5,1.5c0.3,0.2,1.1,0.7,2.3,1.4
			c0.4,0.2,0.5,0.4,0.5,0.6c0,0.2-0.1,0.3-0.4,0.5l-3.8,2.2c-1.1,0.6-1.7,1-1.8,1.2c-1.1,0.7-1.7,1.1-1.7,1.2
			c-0.1,0.1-0.3,0.2-0.4,0.1c-0.4,0-0.5-0.3-0.4-0.7c0.1-0.4,0.2-0.9,0.3-1.6c0.1-0.7,0.2-1.3,0.2-1.8c0-0.8-0.1-1.7-0.4-2.7
			c-0.8-3.2-2.9-5.8-6.2-7.8c-3.3-2-7.2-3-11.6-3c-8.2,0-14.8,3.7-19.8,11c-4.6,6.7-6.9,14.8-6.9,24c0,11.3,2.9,21.3,8.7,29.8
			c6.4,9.5,14.8,14.3,25.1,14.3c6.1,0,11.3-1.6,15.7-4.8c4.4-3.2,6.6-6.8,6.6-10.9c0-1-0.3-2-0.8-2.8c-0.5-0.9-1.2-1.3-2.1-1.3
			c-0.8,0-1.5,0.2-2.1,0.5c-0.4,0.2-0.7,0.5-1,0.9c-0.1,0.3-0.2,0.5-0.5,0.5c-0.2,0-0.4-0.3-0.4-0.8c0-1.1,0.4-2.3,1.2-3.5
			c1-1.5,2.3-2.3,3.9-2.3c1.9,0,3.5,0.8,4.5,2.4c1,1.4,1.5,3.1,1.5,5.2c0,0.4,0,0.8-0.1,1c-0.6,5.9-3.7,11-9.3,15.2
			c-5.7,4.2-12.3,6.3-20,6.3c-11.6,0-21.2-4.8-28.8-14.4c-7.2-9.1-10.9-20-10.9-32.6c0-11.1,3.3-20.8,9.9-28.9
			c7-8.5,15.6-12.8,26-12.8c6.6,0,12.2,2,16.6,5.9c0.5-3.2,1.9-6.1,4-8.6c2.7-3.1,5.9-4.6,9.8-4.6c3,0,5.3,0.8,7.2,2.3
			C371.4,181.1,372.3,183.2,372.3,185.7z"/>
		<path class="st0" d="M390.8,270c0.1,0.1,0.1,0.2,0.2,0.4c0,0.1,0.1,0.2,0.1,0.3c0,0.4-0.4,0.7-1.1,0.7c-0.4,0-1.6,0-3.6-0.2
			s-3.4-0.2-4.2-0.2c-1.3,0-3.2,0.1-5.8,0.4c-1,0.1-1.7,0.1-2.1,0.1c-0.7,0-1-0.2-1-0.7c0-0.2,0.1-0.4,0.2-0.5
			c0.1-0.2,1-0.9,2.6-2.2c1.3-1,1.9-1.8,1.9-2.6v-73c0-0.8-0.6-1.6-1.8-2.6c-0.9-0.7-1.8-1.4-2.7-2.1c-0.1-0.2-0.2-0.4-0.1-0.7
			c0.1-0.3,0.4-0.5,0.9-0.5c0.4,0,1.6,0,3.6,0.2c2,0.1,3.4,0.2,4.2,0.2c1.6,0,3.3-0.1,4.9-0.2c1.7-0.1,2.6-0.2,2.8-0.2
			c0.7,0,1.1,0.2,1.1,0.7c0,0.2-0.1,0.5-0.2,0.7c-0.1,0.1-0.9,0.8-2.5,2c-1.3,1-1.9,1.8-1.9,2.6v73.1c0,0.8,0.6,1.6,1.8,2.5
			C389.8,269.2,390.7,269.9,390.8,270z"/>
		<path class="st0" d="M475.6,228.3c0,11.2-3.4,21.2-10.1,30.1c-7.3,9.7-16.4,14.6-27.2,14.6c-10.3,0-18.7-4.4-25.2-13.3
			c-6.1-8.3-9.1-18.1-9.1-29.5c0-9.2,1.7-17.3,5-24.2c3.2-6.7,7.6-11.4,13-14.3c0.7-0.3,1.2-0.5,1.5-0.5c0.4,0,0.5,0.1,0.5,0.4
			c0,0.4-0.4,0.9-1.1,1.5c-2.2,1.9-4,4-5.4,6.1c-1.9,3-3.3,6.7-4.3,10.9c-1.1,5-1.7,11.3-1.7,18.8c0,9.7,2.9,18.3,8.8,25.8
			c6.1,7.8,13.2,11.7,21.5,11.7c7.6,0,13.9-2.7,18.6-8.2c5.2-6,7.8-14.4,7.8-25.3c0-11.6-3-22-9.1-31.1
			c-5.8-8.7-12.1-13.1-18.8-13.1c-2.7,0-4.9,0.7-6.5,2c-1.6,1.4-2.4,3.1-2.4,5.4c0,1.3,0.4,2.5,1.2,3.5c0.8,1.1,1.8,1.6,3,1.6
			c0.3,0,0.6,0,0.9-0.1c0.3,0,0.7-0.2,1.1-0.5c0.4-0.3,0.7-0.6,0.9-0.9c0.2-0.3,0.3-0.6,0.5-0.9c0.1-0.3,0.2-0.6,0.3-0.8
			c0-0.2,0.1-0.4,0.2-0.4c0.2,0,0.4,0.1,0.6,0.4c0.4,0.7,0.6,1.7,0.6,2.9c0,0.2,0,0.4,0,0.6c-0.1,0.3-0.1,0.5-0.1,0.6
			c-0.2,1.5-1,2.8-2.2,3.9c-1.2,1.1-2.7,1.6-4.4,1.6c-2.6,0-4.7-1-6.4-2.9s-2.5-4.3-2.5-7c0-4.1,1.8-7.4,5.3-9.9
			c3.2-2.3,6.9-3.4,11.1-3.4c10.1,0,18.3,4.4,24.7,13.3C472.6,206.3,475.6,216.4,475.6,228.3z"/>
		<path class="st0" d="M558.4,267.6c0,1.2-0.7,2.3-2,3.6c-1.5,1.4-3.3,2.1-5.2,2.1c-2.8,0-5.2-1.3-7-4c-1.7-2.5-2.5-5.3-2.5-8.6
			c-3.3,4.2-7.2,7.4-11.7,9.6c-4.2,2-8.9,3-13.9,3c-9.2,0-16.4-3.6-21.5-10.9c-4.7-6.6-7.1-15.2-7.1-25.8c0-5.8,1.7-12,5.1-18.4
			c2.7-5.1,6.5-10.5,11.4-16c3.6-4.1,7.5-7.8,11.5-11.3c-1,0.5-2,0.8-3.1,1.1c-1.1,0.2-2.3,0.3-3.5,0.3c-0.9,0-1.8-0.1-2.7-0.2
			c-3.5-0.9-7-1.8-10.6-2.7c-0.9,0-1.7,0.3-2.3,0.8c-0.6,0.5-1,1.2-1,2.1c0,0.6,0.1,1.1,0.4,1.5c0.3,0.4,0.7,0.7,1.3,0.8
			c0.7,0,1.3-0.1,1.6-0.2c0.4-0.2,0.6-0.4,0.8-0.5c0.2-0.2,0.3-0.2,0.5-0.2c0.2,0,0.4,0.3,0.4,0.8c0,1.1-0.3,2.1-1,3
			c-0.9,1.3-2.1,1.9-3.5,1.9c-1.2,0-2.2-0.5-2.9-1.4c-0.7-1-1.1-2.1-1.1-3.5c0-0.5,0.1-1.1,0.3-1.8c0.6-1.9,1.9-3.7,3.9-5.3
			c2.3-1.8,4.6-2.7,7-2.7c1.6,0,3.3,0.3,5,0.8c4,1.2,6.7,1.8,8.2,1.8c1.7,0,3.3-0.2,4.7-0.7c0.6-0.2,1.5-0.6,2.5-1.2
			c0.5-0.2,0.8-0.3,1-0.3c0.3,0,0.8,0.3,1.3,1c0.6,0.6,0.9,1.1,0.9,1.5c0,0.4-0.2,0.7-0.5,1.1c-2.2,1.6-4.3,3.4-6.4,5.2
			c-2.1,1.9-4.1,4-6,6.4c-3,3.7-5.5,7.2-7.5,10.5c-2.3,3.9-4,7.9-5.2,11.8c-1.3,4.5-1.9,9.3-1.9,14.3c0,8,1.7,14.6,5.2,20
			c4.1,6.3,9.9,9.4,17.5,9.4c4.9,0,9.4-1.1,13.6-3.4c3.4-1.9,6.4-4.4,9.1-7.6v-63.2c0-0.8-0.6-1.6-1.8-2.6c-0.9-0.7-1.8-1.4-2.7-2.1
			c-0.1-0.2-0.2-0.4-0.1-0.7c0.1-0.3,0.4-0.5,0.9-0.5c0.4,0,1.6,0,3.6,0.2c2,0.1,3.4,0.2,4.2,0.2c1.6,0,3.3-0.1,4.9-0.2
			c1.7-0.1,2.6-0.2,2.8-0.2c0.7,0,1.1,0.2,1.1,0.7c0,0.2-0.1,0.5-0.2,0.7c-0.1,0.1-0.9,0.8-2.5,2c-1.3,1-1.9,1.8-1.9,2.6v65.4
			c0,3,0.3,5.4,0.8,7.1c0.8,2.3,2,3.5,3.6,3.5c0.7,0,1.3-0.1,1.7-0.3c0.4-0.2,0.9-0.5,1.4-1.1c0.1-0.2,0.3-0.2,0.4-0.2
			c0.1,0,0.2,0.1,0.3,0.3C558.5,267.2,558.5,267.4,558.4,267.6z"/>
		<path class="st0" d="M629.1,244.1c0,8.5-3.6,15.6-10.7,21.2c-6.7,5.3-14.7,7.9-23.9,7.9c-8.4,0-15.5-2-21.3-6.1
			c-6.4-4.5-9.6-10.7-9.6-18.4c0-5.5,2.2-10.1,6.7-14c4.5-3.9,9.8-5.9,16.1-5.9c6.1,0,11.1,1.2,14.9,3.5c4.2,2.6,6.4,6.3,6.4,11.2
			c0,3.5-1.4,6.4-4.3,8.8c-2.9,2.3-6.2,3.5-9.9,3.5c-3.4,0-6.3-0.6-8.7-1.9c-2.8-1.5-4.2-3.7-4.2-6.6c0-1.7,0.7-3.1,2.1-4.2
			c1.1-0.9,2.1-1.4,2.9-1.5c0.8-0.1,1.3-0.2,1.4-0.2c0.3,0,0.5,0.1,0.5,0.4c-0.1,0.2-0.2,0.5-0.2,0.7c0,0.1-0.1,0.3-0.2,0.7
			c-0.2,0.8-0.4,1.7-0.4,2.7c0,1.3,0.6,2.3,1.9,3.2c1.3,0.9,2.7,1.4,4.2,1.4c2.5,0,4.6-0.8,6.2-2.3c1.7-1.5,2.5-3.4,2.5-5.7
			c0-3.4-1.7-6-5-7.9c-2.9-1.7-6.4-2.5-10.5-2.5c-5.2,0-9.7,1.5-13.5,4.6c-4,3.2-6,7.3-6,12.1c0,6.3,3,11.4,9,15.2
			c5.4,3.4,11.8,5.1,19.2,5.1c7.6,0,14.1-2.3,19.5-7c5.6-4.9,8.4-10.9,8.4-18.1c0-3.9-0.9-7.4-2.8-10.3c-1.6-2.6-4.1-5.1-7.5-7.5
			c-2.3-1.7-5.8-3.7-10.5-6.1c-6-2.8-12-5.7-17.9-8.6c-6-3.5-9-7.7-9-12.4c0-4.7,2.4-8.4,7.2-11c4.2-2.3,9.2-3.4,15.2-3.4
			c4.6,0,8.2,0.5,10.9,1.5c3.7,1.4,5.5,3.7,5.5,6.9c0,1.3-0.5,2.5-1.5,3.5s-1.9,1.6-2.7,1.7c-0.8,0.1-1.4,0.1-1.7,0.1
			c-0.9,0-1.6-0.1-2.2-0.4c-0.4-0.3-0.7-0.5-0.7-0.6c0-0.2,0.1-0.4,0.4-0.7c0.6-0.6,1-1.2,1.2-1.8s0.4-1.3,0.4-2
			c0-2-1.1-3.5-3.3-4.5c-1.7-0.8-3.9-1.2-6.6-1.2c-4.2,0-7.8,0.7-10.6,2c-3.4,1.6-5.2,3.9-5.2,7c0,2.2,1.2,4.3,3.7,6.1
			c1.7,1.3,4.8,2.9,9.1,4.8c6.4,2.8,10.2,4.4,11.2,5c5.4,2.6,9.5,5,12.4,7.2c3.8,2.9,6.6,6.2,8.4,9.9
			C628,233.1,629.1,238.2,629.1,244.1z"/>
	</g>
	<g id="XMLID_62_">
		<g id="XMLID_336_">
			<g id="XMLID_303_">
				<g id="XMLID_26_">
					<path id="XMLID_73_" class="st0" d="M622.1,145.8H419.3c-0.7,0-1.3-0.6-1.3-1.3c0-0.7,0.6-1.3,1.3-1.3h202.9
						c0.7,0,1.3,0.6,1.3,1.3C623.5,145.2,622.9,145.8,622.1,145.8z"/>
				</g>
				<g id="XMLID_44_">
					<path id="XMLID_72_" class="st0" d="M620.6,145.8c-0.7,0-1.3-0.6-1.3-1.3c0-0.7,0.6-1.3,1.3-1.3c8.9,0,14.3-1.8,19.5-6.6
						c3.9-3.6,6.6-9.8,3.9-14.3c-2.5-4.1-8.4-4.8-12.5-3.2c-1.2,0.5-3.4,1.6-4.3,3.7c-0.6,1.4-0.4,3.5,0.9,4.5
						c0.6,0.4,0.8,1.2,0.4,1.8c-0.4,0.6-1.2,0.8-1.8,0.4c-2.3-1.5-3.1-4.9-1.9-7.7c0.9-2.1,3-4,5.7-5.1c5.2-2.1,12.5-1.1,15.8,4.3
						c3.5,5.8,0.4,13.2-4.4,17.6C636.2,143.7,630,145.8,620.6,145.8z"/>
				</g>
				<g id="XMLID_49_">
					<path id="XMLID_71_" class="st0" d="M419.3,145.8c-31.5,0-52-6.9-70.7-24c-15.5-14.1-25.4-37.9-14.4-56.2
						c10.2-16.9,33.4-20,49.9-13.2c8.6,3.5,14.9,9.1,17.8,15.7c3.2,7.2,2,17.6-5.3,22.5c-0.6,0.4-1.4,0.2-1.8-0.4
						c-0.4-0.6-0.3-1.4,0.4-1.8c6.2-4.2,7.1-13.1,4.4-19.2c-2.6-5.9-8.4-11-16.3-14.3c-15.1-6.2-37.3-3.4-46.6,12.1
						c-10.2,16.9-0.4,39.8,13.9,52.9c18.4,16.8,37.8,23.3,68.9,23.3c0.7,0,1.3,0.6,1.3,1.3C420.6,145.2,420,145.8,419.3,145.8z"/>
				</g>
				<g id="XMLID_47_">
					<path id="XMLID_70_" class="st0" d="M418.8,134c-17.4,0-42.6-3.3-59.5-19.9c-5.1-5-9.3-11.2-12-18c-3-7.4-3.8-13.4-2.6-19.8
						c1.8-9.5,10.6-17.2,21.4-18.8c6-0.9,11.9,0.1,16.6,2.9c5.3,3.1,8.7,8.6,9.1,14.2c0,0.7-0.5,1.4-1.2,1.4c-0.8,0-1.4-0.5-1.4-1.2
						c-0.3-4.7-3.3-9.4-7.8-12.1c-4.1-2.5-9.4-3.4-14.8-2.5c-9.5,1.4-17.6,8.4-19.1,16.7c-1.2,6-0.5,11.3,2.4,18.3
						c2.6,6.4,6.6,12.3,11.4,17.1c19.1,18.7,49.3,19.9,65.7,18.9c0.8,0,1.4,0.5,1.4,1.2c0,0.7-0.5,1.4-1.2,1.4
						C424.6,133.9,421.8,134,418.8,134z"/>
				</g>
				<g id="XMLID_50_">
					<g id="XMLID_116_">
						<path id="XMLID_199_" class="st0" d="M435.8,133.9c1.7,0,1.7-2.7,0-2.7C434.1,131.2,434.1,133.9,435.8,133.9L435.8,133.9z"/>
					</g>
				</g>
				<g id="XMLID_61_">
					<g id="XMLID_114_">
						<path id="XMLID_198_" class="st0" d="M443,133.9c1.7,0,1.7-2.7,0-2.7C441.3,131.2,441.2,133.9,443,133.9L443,133.9z"/>
					</g>
				</g>
				<g id="XMLID_302_">
					<g id="XMLID_113_">
						<path id="XMLID_197_" class="st0" d="M450.7,133.6c1.7,0,1.7-2.7,0-2.7C449,131,449,133.6,450.7,133.6L450.7,133.6z"/>
					</g>
				</g>
				<g id="XMLID_335_">
					<path id="XMLID_69_" class="st0" d="M489.2,145.8c-0.7,0-1.2-0.5-1.3-1.2c-0.1-0.7,0.4-1.4,1.2-1.5
						c19.1-2.1,36.2-4.4,51.9-11.3c9.6-4.2,17.8-10,23.9-16.8c4.1-4.6,7.2-9.8,8.8-14.4c1.8-5.3,1.4-9.4-1.3-12.1
						c-4.7-4.7-15.2-4.6-23.2-2c-5.2,1.7-11.5,6.6-13.1,12.6c-0.9,3.3,0.6,7.3,3.6,9.6c1.4,1,4.2,2.5,7.5,0.5
						c0.6-0.4,1.4-0.2,1.8,0.4c0.4,0.6,0.2,1.4-0.4,1.8c-3.4,2.1-7.2,1.9-10.5-0.6c-3.8-2.9-5.8-8.1-4.6-12.4
						c1.9-7,8.9-12.5,14.8-14.4c8.5-2.7,20.2-3,25.9,2.7c2.3,2.4,4.6,6.9,1.9,14.8c-1.7,5-5,10.5-9.3,15.4
						c-6.3,7.1-14.9,13.1-24.8,17.4c-16,7-33.3,9.3-52.7,11.5C489.3,145.8,489.2,145.8,489.2,145.8z"/>
				</g>
				<g id="XMLID_337_">
					<path id="XMLID_196_" class="st0" d="M326.2,95.1c0,0,0.1,0.7,0.4,2c0.2,1.3,0.7,3,1.2,5.1c0.6,2.1,1.3,4.5,2.1,7
						c0.9,2.5,1.9,5.2,3.1,7.7c0.6,1.3,1.3,2.5,2,3.7c0.7,1.1,1.4,2.3,2.1,3.4c0.6,1.1,1.3,2.1,1.9,3.1c0.6,1,1.2,1.9,1.8,2.7
						c0.5,0.9,1.1,1.6,1.6,2.3c0.5,0.7,1,1.2,1.4,1.7c0.9,0.9,1.4,1.5,1.4,1.5l-0.2,0.5c0,0-0.8,0-2.2-0.3c-0.6-0.2-1.5-0.5-2.4-0.9
						c-0.8-0.5-1.9-1-2.8-1.8c-1-0.7-1.9-1.6-2.8-2.6c-0.9-1-1.8-2.1-2.5-3.4c-0.7-1.2-1.3-2.6-1.9-4c-0.5-1.4-1.1-2.8-1.5-4.3
						c-0.9-2.9-1.6-5.8-2.2-8.5c-0.5-2.7-0.8-5.3-1-7.5c-0.1-2.2-0.3-4.1-0.2-5.3c0-1.3,0-2,0-2L326.2,95.1z"/>
				</g>
				<g id="XMLID_344_">
					<path id="XMLID_195_" class="st0" d="M323.4,66.2c0,0-0.6-4.1-1.4-10.3c-0.4-3.1-0.8-6.7-1.2-10.6c-0.4-3.9-0.8-8-1.1-12.1
						c-0.3-4.1-1.2-8.3-1.3-12.1c0-3.9,0.6-7.5,1.3-10.6c0.7-3.1,1.6-5.7,2.4-7.5c0.8-1.8,1.4-2.8,1.4-2.8h1.1c0,0,0.6,1,1.4,2.8
						c0.8,1.8,1.7,4.4,2.4,7.5c0.7,3.1,1.3,6.7,1.3,10.6c-0.1,3.9-1,8-1.3,12.1c-0.4,4.1-0.7,8.3-1.1,12.1
						c-0.4,3.9-0.8,7.5-1.2,10.6c-0.7,6.2-1.4,10.3-1.4,10.3H323.4z"/>
				</g>
				<g id="XMLID_358_">
					<path id="XMLID_194_" class="st0" d="M326.9,68.5c0,0,0.3-0.8,0.8-2.3c0.2-0.7,0.5-1.6,0.9-2.6c0.4-1,0.8-2.2,1.4-3.4
						c0.6-1.2,1.2-2.5,1.9-3.9c0.7-1.3,1.5-2.8,2.5-4.1c0.9-1.4,1.9-2.8,3-4.2c1.1-1.4,2.3-2.8,3.6-4.1l1.9-2c0.7-0.6,1.4-1.2,2-1.8
						c1.4-1.2,2.8-2.3,4.3-3.2c3-1.8,6.3-2.7,9-3.2c1.4-0.2,2.7-0.3,3.8-0.3c1.1,0.1,2.1,0,2.9,0.3c1.6,0.3,2.5,0.6,2.5,0.6l0,0.5
						c0,0-0.9,0.3-2.3,0.8c-0.7,0.2-1.6,0.6-2.6,0.9c-1,0.3-2,0.9-3.2,1.3c-0.6,0.2-1.1,0.6-1.7,0.8c-0.6,0.3-1.2,0.5-1.8,0.9
						c-0.6,0.4-1.2,0.7-1.9,1c-0.6,0.4-1.3,0.7-1.9,1.1c-1.3,0.7-2.7,1.5-4.1,2.4c-1.4,0.9-2.7,1.8-4,2.9c-1.3,1-2.5,2.2-3.7,3.4
						c-1.2,1.2-2.3,2.4-3.3,3.6c-1.1,1.2-1.9,2.5-2.8,3.7c-0.9,1.2-1.6,2.4-2.4,3.4c-0.7,1.1-1.3,2.1-1.8,3c-0.6,0.9-1,1.7-1.3,2.4
						c-0.7,1.4-1.1,2.1-1.1,2.1L326.9,68.5z"/>
				</g>
			</g>
			<g id="XMLID_338_">
				<g id="XMLID_816_">
					<path id="XMLID_68_" class="st0" d="M228.5,145.8H25.7c-0.7,0-1.3-0.6-1.3-1.3c0-0.7,0.6-1.3,1.3-1.3h202.9
						c0.7,0,1.3,0.6,1.3,1.3C229.8,145.2,229.3,145.8,228.5,145.8z"/>
				</g>
				<g id="XMLID_815_">
					<path id="XMLID_67_" class="st0" d="M27.2,145.8c-9.5,0-15.6-2.1-21.3-7.3c-4.8-4.4-7.9-11.8-4.4-17.6
						c3.2-5.4,10.6-6.4,15.8-4.3c2.7,1.1,4.8,2.9,5.7,5.1c1.2,2.8,0.4,6.2-1.9,7.7c-0.6,0.4-1.4,0.3-1.8-0.4
						c-0.4-0.6-0.3-1.4,0.4-1.8c1.4-0.9,1.6-3.1,0.9-4.5c-0.9-2-3.1-3.2-4.3-3.7c-4.1-1.7-10-0.9-12.5,3.2c-2.7,4.5,0,10.7,3.9,14.3
						c5.2,4.7,10.7,6.6,19.5,6.6c0.7,0,1.3,0.6,1.3,1.3C28.5,145.2,27.9,145.8,27.2,145.8z"/>
				</g>
				<g id="XMLID_814_">
					<path id="XMLID_60_" class="st0" d="M228.5,145.8c-0.7,0-1.3-0.6-1.3-1.3c0-0.7,0.6-1.3,1.3-1.3c31.1,0,50.5-6.5,68.9-23.3
						c14.3-13,24.1-36,13.9-52.9c-9.3-15.5-31.5-18.4-46.6-12.1c-7.9,3.3-13.7,8.3-16.3,14.3c-2.7,6.2-1.8,15.1,4.4,19.2
						c0.6,0.4,0.8,1.2,0.4,1.8c-0.4,0.6-1.2,0.8-1.8,0.4c-7.3-5-8.5-15.3-5.3-22.5c2.9-6.6,9.2-12.1,17.8-15.7
						c16.5-6.8,39.7-3.7,49.9,13.2c11,18.3,1.1,42.1-14.4,56.2C280.5,138.8,260,145.8,228.5,145.8z"/>
				</g>
				<g id="XMLID_813_">
					<path id="XMLID_59_" class="st0" d="M228.9,134c-3,0-5.8-0.1-8.2-0.2c-0.7,0-1.3-0.7-1.2-1.4c0-0.7,0.6-1.3,1.4-1.2
						c16.3,1,46.6-0.2,65.7-18.9c4.8-4.8,8.8-10.7,11.4-17.1c2.9-7,3.6-12.3,2.4-18.3c-1.6-8.2-9.6-15.2-19.1-16.7
						c-5.4-0.8-10.7,0.1-14.8,2.5c-4.5,2.7-7.5,7.3-7.8,12.1c0,0.7-0.7,1.3-1.4,1.2c-0.7,0-1.3-0.7-1.2-1.4
						c0.3-5.6,3.8-11.1,9.1-14.2c4.6-2.8,10.5-3.8,16.6-2.9c10.8,1.6,19.5,9.3,21.4,18.8c1.2,6.5,0.5,12.4-2.6,19.8
						c-2.8,6.7-6.9,13-12,18C271.5,130.7,246.4,134,228.9,134z"/>
				</g>
				<g id="XMLID_806_">
					<g id="XMLID_111_">
						<path id="XMLID_193_" class="st0" d="M212,133.9c1.7,0,1.7-2.7,0-2.7C210.3,131.2,210.3,133.9,212,133.9L212,133.9z"/>
					</g>
				</g>
				<g id="XMLID_793_">
					<g id="XMLID_110_">
						<path id="XMLID_192_" class="st0" d="M204.8,133.9c1.7,0,1.7-2.7,0-2.7C203.1,131.2,203.1,133.9,204.8,133.9L204.8,133.9z"/>
					</g>
				</g>
				<g id="XMLID_786_">
					<g id="XMLID_108_">
						<path id="XMLID_191_" class="st0" d="M197.1,133.6c1.7,0,1.7-2.7,0-2.7C195.4,131,195.4,133.6,197.1,133.6L197.1,133.6z"/>
					</g>
				</g>
				<g id="XMLID_785_">
					<path id="XMLID_58_" class="st0" d="M158.6,145.8c0,0-0.1,0-0.1,0c-19.3-2.2-36.7-4.5-52.7-11.5c-9.9-4.3-18.5-10.4-24.8-17.4
						c-4.3-4.9-7.6-10.3-9.3-15.4C69,93.5,71.2,89,73.6,86.7c5.7-5.7,17.4-5.4,25.9-2.7c6,1.9,13,7.5,14.8,14.4
						c1.2,4.3-0.8,9.5-4.6,12.4c-3.3,2.5-7.1,2.7-10.5,0.6c-0.6-0.4-0.8-1.2-0.4-1.8c0.4-0.6,1.2-0.8,1.8-0.4c3.3,2,6.2,0.6,7.5-0.5
						c3-2.2,4.5-6.3,3.6-9.6c-1.6-6-7.9-10.9-13.1-12.6c-8-2.6-18.5-2.7-23.2,2c-2.7,2.7-3.1,6.8-1.3,12.1c1.6,4.7,4.7,9.8,8.8,14.4
						c6,6.8,14.3,12.6,23.9,16.8c15.7,6.8,32.8,9.1,51.9,11.3c0.7,0.1,1.3,0.7,1.2,1.5C159.8,145.3,159.3,145.8,158.6,145.8z"/>
				</g>
				<g id="XMLID_735_">
					<path id="XMLID_190_" class="st0" d="M322.1,95.2c0,0,0,0.7,0,2c0,1.3-0.1,3.1-0.2,5.3c-0.2,2.2-0.5,4.8-1,7.5
						c-0.5,2.7-1.2,5.6-2.2,8.5c-0.4,1.4-1,2.9-1.5,4.3c-0.5,1.4-1.1,2.8-1.9,4c-0.7,1.3-1.6,2.4-2.5,3.4c-0.9,1-1.8,1.9-2.8,2.6
						c-0.9,0.8-1.9,1.3-2.8,1.8c-0.9,0.4-1.7,0.7-2.4,0.9c-1.4,0.3-2.2,0.3-2.2,0.3l-0.2-0.5c0,0,0.5-0.6,1.4-1.5
						c0.4-0.5,0.9-1,1.4-1.7c0.5-0.7,1.1-1.4,1.6-2.3c0.6-0.8,1.1-1.8,1.8-2.7c0.6-1,1.2-2.1,1.9-3.1c0.7-1.1,1.4-2.2,2.1-3.4
						c0.7-1.2,1.4-2.4,2-3.7c1.2-2.5,2.3-5.2,3.1-7.7c0.8-2.5,1.6-5,2.1-7c0.5-2.1,0.9-3.9,1.2-5.1c0.3-1.3,0.4-2,0.4-2L322.1,95.2z
						"/>
				</g>
				<g id="XMLID_339_">
					<path id="XMLID_189_" class="st0" d="M320.4,68.7c0,0-0.4-0.8-1.1-2.1c-0.4-0.7-0.8-1.5-1.3-2.4c-0.6-0.9-1.1-1.9-1.8-3
						c-0.7-1.1-1.5-2.3-2.4-3.4c-0.9-1.2-1.8-2.5-2.8-3.7c-1-1.3-2.1-2.4-3.3-3.6c-1.2-1.2-2.4-2.3-3.7-3.4c-1.3-1.1-2.6-2-4-2.9
						c-1.4-0.8-2.8-1.7-4.1-2.4c-0.7-0.4-1.3-0.8-1.9-1.1c-0.7-0.3-1.3-0.7-1.9-1c-0.6-0.4-1.2-0.6-1.8-0.9
						c-0.6-0.3-1.2-0.6-1.7-0.8c-1.1-0.4-2.2-1-3.2-1.3c-1-0.3-1.8-0.7-2.6-0.9c-1.5-0.4-2.3-0.8-2.3-0.8l0-0.5c0,0,0.9-0.3,2.5-0.6
						c0.8-0.2,1.8-0.2,2.9-0.3c1.1-0.1,2.4,0.1,3.8,0.3c2.8,0.5,6,1.4,9,3.2c1.5,0.9,2.9,2,4.3,3.2c0.7,0.6,1.4,1.2,2,1.8l1.9,2
						c1.3,1.3,2.4,2.7,3.6,4.1c1.1,1.4,2.1,2.8,3,4.2c1,1.4,1.8,2.8,2.5,4.1c0.8,1.3,1.3,2.7,1.9,3.9c0.6,1.2,1,2.4,1.4,3.4
						c0.4,1,0.7,1.9,0.9,2.6c0.5,1.5,0.8,2.3,0.8,2.3L320.4,68.7z"/>
				</g>
			</g>
		</g>
		<g id="XMLID_340_">
			<g id="XMLID_830_">
				<g id="XMLID_847_">
					<path id="XMLID_57_" class="st0" d="M228.5,310.5H25.7c-0.7,0-1.3-0.6-1.3-1.3s0.6-1.3,1.3-1.3h202.9c0.7,0,1.3,0.6,1.3,1.3
						S229.3,310.5,228.5,310.5z"/>
				</g>
				<g id="XMLID_846_">
					<path id="XMLID_56_" class="st0" d="M11.8,338c-4,0-8.1-1.6-10.3-5.3c-3.5-5.8-0.4-13.2,4.4-17.6c5.7-5.2,11.9-7.3,21.3-7.3
						c0.7,0,1.3,0.6,1.3,1.3s-0.6,1.3-1.3,1.3c-8.9,0-14.3,1.8-19.5,6.6c-3.9,3.6-6.6,9.8-3.9,14.3c2.5,4.1,8.4,4.8,12.5,3.2
						c1.2-0.5,3.4-1.6,4.3-3.7c0.6-1.4,0.4-3.5-0.9-4.5c-0.6-0.4-0.8-1.2-0.4-1.8c0.4-0.6,1.2-0.8,1.8-0.4c2.3,1.5,3.1,4.9,1.9,7.7
						c-0.9,2.2-3,4-5.7,5.1C15.6,337.6,13.7,338,11.8,338z"/>
				</g>
				<g id="XMLID_845_">
					<path id="XMLID_55_" class="st0" d="M281.2,404.6c-6.1,0-12.1-1.2-17.4-3.4c-8.6-3.5-14.9-9.1-17.8-15.7
						c-3.2-7.2-2-17.6,5.3-22.5c0.6-0.4,1.4-0.3,1.8,0.4c0.4,0.6,0.3,1.4-0.4,1.8c-6.2,4.2-7.1,13.1-4.4,19.2
						c2.6,5.9,8.4,11,16.3,14.3c15.2,6.2,37.3,3.4,46.6-12.1c10.2-16.9,0.4-39.8-13.9-52.9c-18.4-16.8-37.8-23.3-68.9-23.3
						c-0.7,0-1.3-0.6-1.3-1.3s0.6-1.3,1.3-1.3c31.5,0,52,6.9,70.7,24c15.5,14.1,25.4,37.9,14.4,56.2
						C306.7,399.5,293.9,404.6,281.2,404.6z"/>
				</g>
				<g id="XMLID_844_">
					<path id="XMLID_54_" class="st0" d="M277.4,396.4c-4.5,0-8.8-1.1-12.3-3.2c-5.3-3.1-8.7-8.6-9.1-14.2c0-0.7,0.5-1.4,1.2-1.4
						c0.7-0.1,1.4,0.5,1.4,1.2c0.3,4.7,3.3,9.4,7.8,12.1c4.1,2.5,9.4,3.4,14.8,2.5c9.5-1.4,17.6-8.4,19.1-16.7
						c1.2-6,0.5-11.3-2.4-18.3c-2.6-6.4-6.6-12.3-11.4-17.1c-19.1-18.7-49.3-19.9-65.7-18.9c-0.7,0.1-1.4-0.5-1.4-1.2
						c0-0.7,0.5-1.4,1.2-1.4c16.8-1,47.9,0.2,67.7,19.7c5.1,5,9.3,11.2,12,18c3,7.4,3.8,13.4,2.6,19.8c-1.8,9.5-10.6,17.2-21.4,18.8
						C280.2,396.3,278.8,396.4,277.4,396.4z"/>
				</g>
				<g id="XMLID_843_">
					<g id="XMLID_107_">
						<path id="XMLID_188_" class="st0" d="M212,322.3c1.7,0,1.7-2.7,0-2.7C210.3,319.7,210.3,322.3,212,322.3L212,322.3z"/>
					</g>
				</g>
				<g id="XMLID_842_">
					<g id="XMLID_105_">
						<path id="XMLID_187_" class="st0" d="M204.8,322.3c1.7,0,1.7-2.7,0-2.7C203.1,319.7,203.1,322.3,204.8,322.3L204.8,322.3z"/>
					</g>
				</g>
				<g id="XMLID_841_">
					<g id="XMLID_104_">
						<path id="XMLID_186_" class="st0" d="M197.1,322.6c1.7,0,1.7-2.7,0-2.7C195.4,319.9,195.4,322.6,197.1,322.6L197.1,322.6z"/>
					</g>
				</g>
				<g id="XMLID_840_">
					<path id="XMLID_53_" class="st0" d="M87.5,371.5c-5.5,0-10.7-1.3-13.9-4.6c-2.3-2.4-4.6-6.9-1.9-14.8c1.7-5,5-10.5,9.3-15.4
						c6.3-7.1,14.9-13.1,24.8-17.4c16-7,33.3-9.3,52.7-11.5c0.7-0.1,1.4,0.4,1.5,1.2c0.1,0.7-0.4,1.4-1.2,1.5
						c-19.1,2.1-36.2,4.4-51.9,11.3c-9.6,4.2-17.8,10-23.9,16.8c-4.1,4.6-7.2,9.8-8.8,14.4c-1.8,5.3-1.4,9.4,1.3,12.1
						c4.7,4.7,15.2,4.6,23.2,2c5.2-1.7,11.5-6.6,13.1-12.6c0.9-3.3-0.6-7.3-3.6-9.6c-1.4-1-4.2-2.5-7.5-0.5
						c-0.6,0.4-1.4,0.2-1.8-0.4c-0.4-0.6-0.2-1.4,0.4-1.8c3.4-2.1,7.2-1.9,10.5,0.6c3.8,2.9,5.8,8.1,4.6,12.4
						c-1.9,7-8.9,12.5-14.8,14.4C95.8,370.8,91.6,371.5,87.5,371.5z"/>
				</g>
				<g id="XMLID_837_">
					<path id="XMLID_185_" class="st0" d="M321.6,358.4c0,0-0.1-0.7-0.4-2c-0.2-1.3-0.7-3-1.2-5.1c-0.6-2.1-1.3-4.5-2.1-7
						c-0.9-2.5-1.9-5.2-3.1-7.7c-0.6-1.3-1.3-2.5-2-3.7c-0.7-1.1-1.4-2.3-2.1-3.4c-0.6-1.1-1.3-2.1-1.9-3.1c-0.6-1-1.2-1.9-1.8-2.7
						c-0.5-0.9-1.1-1.6-1.6-2.3c-0.5-0.7-1-1.2-1.4-1.7c-0.9-0.9-1.4-1.5-1.4-1.5l0.2-0.5c0,0,0.8,0,2.2,0.3
						c0.6,0.2,1.5,0.5,2.4,0.9c0.8,0.5,1.9,1,2.8,1.8c1,0.7,1.9,1.6,2.8,2.6c0.9,1,1.8,2.1,2.5,3.4c0.7,1.2,1.3,2.6,1.9,4
						c0.5,1.4,1.1,2.8,1.5,4.3c0.9,2.9,1.6,5.8,2.2,8.5c0.5,2.7,0.8,5.3,1,7.5c0.1,2.2,0.3,4.1,0.2,5.3c0,1.3,0,2,0,2L321.6,358.4z"
						/>
				</g>
				<g id="XMLID_834_">
					<path id="XMLID_184_" class="st0" d="M324.4,387.4c0,0,0.6,4.1,1.4,10.3c0.4,3.1,0.8,6.7,1.2,10.6c0.4,3.9,0.8,8,1.1,12.1
						c0.3,4.1,1.2,8.3,1.3,12.1c0,3.9-0.6,7.5-1.3,10.6c-0.7,3.1-1.6,5.7-2.4,7.5c-0.8,1.8-1.4,2.8-1.4,2.8h-1.1c0,0-0.6-1-1.4-2.8
						c-0.8-1.8-1.7-4.4-2.4-7.5c-0.7-3.1-1.3-6.7-1.3-10.6c0.1-3.9,1-8,1.3-12.1c0.4-4.1,0.7-8.3,1.1-12.1c0.4-3.9,0.8-7.5,1.2-10.6
						c0.7-6.2,1.4-10.3,1.4-10.3H324.4z"/>
				</g>
				<g id="XMLID_831_">
					<path id="XMLID_183_" class="st0" d="M320.9,385.1c0,0-0.3,0.8-0.8,2.3c-0.2,0.7-0.5,1.6-0.9,2.6c-0.4,1-0.8,2.2-1.4,3.4
						c-0.6,1.2-1.2,2.5-1.9,3.9c-0.7,1.3-1.5,2.8-2.5,4.1c-0.9,1.4-1.9,2.8-3,4.2c-1.1,1.4-2.3,2.8-3.6,4.1l-1.9,2
						c-0.7,0.6-1.4,1.2-2,1.8c-1.4,1.2-2.8,2.3-4.3,3.2c-3,1.8-6.3,2.7-9,3.2c-1.4,0.2-2.7,0.3-3.8,0.3c-1.1-0.1-2.1,0-2.9-0.3
						c-1.6-0.3-2.5-0.6-2.5-0.6l0-0.5c0,0,0.9-0.3,2.3-0.8c0.7-0.2,1.6-0.6,2.6-0.9c1-0.3,2-0.9,3.2-1.3c0.6-0.2,1.1-0.6,1.7-0.8
						c0.6-0.3,1.2-0.5,1.8-0.9c0.6-0.4,1.2-0.7,1.9-1c0.6-0.4,1.3-0.7,1.9-1.1c1.3-0.7,2.7-1.5,4.1-2.4c1.4-0.9,2.7-1.8,4-2.9
						c1.3-1,2.5-2.2,3.7-3.4c1.2-1.2,2.3-2.4,3.3-3.6c1.1-1.2,1.9-2.5,2.8-3.7c0.9-1.2,1.6-2.4,2.4-3.4c0.7-1.1,1.3-2.1,1.8-3
						c0.6-0.9,1-1.7,1.3-2.4c0.7-1.4,1.1-2.1,1.1-2.1L320.9,385.1z"/>
				</g>
			</g>
			<g id="XMLID_345_">
				<g id="XMLID_829_">
					<path id="XMLID_52_" class="st0" d="M622.1,310.5H419.3c-0.7,0-1.3-0.6-1.3-1.3s0.6-1.3,1.3-1.3h202.9c0.7,0,1.3,0.6,1.3,1.3
						S622.9,310.5,622.1,310.5z"/>
				</g>
				<g id="XMLID_828_">
					<path id="XMLID_51_" class="st0" d="M636,338c-1.9,0-3.8-0.4-5.4-1.1c-2.7-1.1-4.8-2.9-5.7-5.1c-1.2-2.8-0.4-6.2,1.9-7.7
						c0.6-0.4,1.4-0.3,1.8,0.4c0.4,0.6,0.2,1.4-0.4,1.8c-1.4,0.9-1.6,3-0.9,4.5c0.9,2,3.1,3.2,4.3,3.7c4.1,1.7,10,0.9,12.5-3.2
						c2.7-4.5,0-10.7-3.9-14.3c-5.2-4.7-10.7-6.6-19.5-6.6c-0.7,0-1.3-0.6-1.3-1.3s0.6-1.3,1.3-1.3c9.5,0,15.6,2.1,21.3,7.3
						c4.8,4.4,7.9,11.8,4.4,17.6C644.1,336.4,640,338,636,338z"/>
				</g>
				<g id="XMLID_827_">
					<path id="XMLID_48_" class="st0" d="M366.6,404.6c-12.7,0-25.6-5.1-32.5-16.6c-11-18.3-1.1-42.1,14.4-56.2
						c18.7-17,39.2-24,70.7-24c0.7,0,1.3,0.6,1.3,1.3s-0.6,1.3-1.3,1.3c-31.2,0-50.5,6.5-68.9,23.3c-14.3,13-24.1,36-13.9,52.9
						c9.3,15.5,31.5,18.4,46.6,12.1c7.9-3.3,13.7-8.3,16.3-14.3c2.7-6.2,1.8-15.1-4.4-19.2c-0.6-0.4-0.8-1.2-0.4-1.8
						c0.4-0.6,1.2-0.8,1.8-0.4c7.3,4.9,8.5,15.3,5.3,22.5c-2.9,6.6-9.2,12.1-17.8,15.7C378.7,403.4,372.7,404.6,366.6,404.6z"/>
				</g>
				<g id="XMLID_826_">
					<path id="XMLID_46_" class="st0" d="M370.4,396.4c-1.4,0-2.8-0.1-4.3-0.3c-10.8-1.6-19.5-9.3-21.4-18.8
						c-1.2-6.5-0.5-12.4,2.6-19.8c2.8-6.7,6.9-13,12-18c19.8-19.4,50.9-20.7,67.7-19.7c0.7,0,1.3,0.7,1.2,1.4c0,0.7-0.7,1.3-1.4,1.2
						c-16.3-1-46.6,0.2-65.7,18.9c-4.8,4.8-8.8,10.7-11.4,17.1c-2.9,7-3.6,12.3-2.4,18.3c1.6,8.2,9.6,15.2,19.1,16.7
						c5.4,0.8,10.7-0.1,14.8-2.5c4.5-2.7,7.5-7.3,7.8-12.1c0-0.7,0.6-1.3,1.4-1.2c0.7,0,1.3,0.7,1.2,1.4c-0.3,5.6-3.8,11.1-9.1,14.2
						C379.2,395.3,374.9,396.4,370.4,396.4z"/>
				</g>
				<g id="XMLID_825_">
					<g id="XMLID_100_">
						<path id="XMLID_182_" class="st0" d="M435.8,322.3c1.7,0,1.7-2.7,0-2.7C434.1,319.7,434.1,322.3,435.8,322.3L435.8,322.3z"/>
					</g>
				</g>
				<g id="XMLID_824_">
					<g id="XMLID_99_">
						<path id="XMLID_181_" class="st0" d="M443,322.3c1.7,0,1.7-2.7,0-2.7C441.3,319.7,441.2,322.3,443,322.3L443,322.3z"/>
					</g>
				</g>
				<g id="XMLID_732_">
					<g id="XMLID_97_">
						<path id="XMLID_180_" class="st0" d="M450.7,322.6c1.7,0,1.7-2.7,0-2.7C449,319.9,449,322.6,450.7,322.6L450.7,322.6z"/>
					</g>
				</g>
				<g id="XMLID_730_">
					<path id="XMLID_45_" class="st0" d="M560.3,371.5c-4.1,0-8.3-0.7-11.9-1.9c-6-1.9-13-7.5-14.8-14.4c-1.2-4.3,0.8-9.5,4.6-12.4
						c3.3-2.5,7.1-2.7,10.5-0.6c0.6,0.4,0.8,1.2,0.4,1.8c-0.4,0.6-1.2,0.8-1.8,0.4c-3.3-2-6.2-0.6-7.5,0.5c-3,2.2-4.5,6.3-3.6,9.6
						c1.6,6,7.9,10.9,13.1,12.6c8,2.6,18.5,2.7,23.2-2c2.7-2.7,3.1-6.8,1.3-12.1c-1.6-4.7-4.7-9.8-8.8-14.4
						c-6-6.8-14.3-12.6-23.9-16.8c-15.7-6.8-32.8-9.1-51.9-11.3c-0.7-0.1-1.3-0.7-1.2-1.5c0.1-0.7,0.7-1.2,1.5-1.2
						c19.3,2.1,36.6,4.5,52.7,11.5c9.9,4.3,18.5,10.4,24.8,17.4c4.3,4.9,7.7,10.3,9.3,15.4c2.7,7.9,0.4,12.4-1.9,14.8
						C571,370.2,565.8,371.5,560.3,371.5z"/>
				</g>
				<g id="XMLID_354_">
					<path id="XMLID_179_" class="st0" d="M325.7,358.4c0,0,0-0.7,0-2c0-1.3,0.1-3.1,0.2-5.3c0.2-2.2,0.5-4.8,1-7.5
						c0.5-2.7,1.2-5.6,2.2-8.5c0.4-1.4,1-2.9,1.5-4.3c0.5-1.4,1.1-2.8,1.9-4c0.7-1.3,1.6-2.4,2.5-3.4c0.9-1,1.8-1.9,2.8-2.6
						c0.9-0.8,1.9-1.3,2.8-1.8c0.9-0.4,1.7-0.7,2.4-0.9c1.4-0.3,2.2-0.3,2.2-0.3l0.2,0.5c0,0-0.5,0.6-1.4,1.5
						c-0.4,0.5-0.9,1-1.4,1.7c-0.5,0.7-1.1,1.4-1.6,2.3c-0.6,0.8-1.1,1.8-1.8,2.7c-0.6,1-1.2,2.1-1.9,3.1c-0.7,1.1-1.4,2.2-2.1,3.4
						c-0.7,1.2-1.4,2.4-2,3.7c-1.2,2.5-2.3,5.2-3.1,7.7c-0.8,2.5-1.6,5-2.1,7c-0.5,2.1-0.9,3.9-1.2,5.1c-0.3,1.3-0.4,2-0.4,2
						L325.7,358.4z"/>
				</g>
				<g id="XMLID_346_">
					<path id="XMLID_178_" class="st0" d="M327.3,384.9c0,0,0.4,0.8,1.1,2.1c0.4,0.7,0.8,1.5,1.3,2.4c0.6,0.9,1.1,1.9,1.8,3
						c0.7,1.1,1.5,2.3,2.4,3.4c0.9,1.2,1.8,2.5,2.8,3.7c1,1.3,2.1,2.4,3.3,3.6c1.2,1.2,2.4,2.3,3.7,3.4c1.3,1.1,2.6,2,4,2.9
						c1.4,0.8,2.8,1.7,4.1,2.4c0.7,0.4,1.3,0.8,1.9,1.1c0.7,0.3,1.3,0.7,1.9,1c0.6,0.4,1.2,0.6,1.8,0.9c0.6,0.3,1.2,0.6,1.7,0.8
						c1.1,0.4,2.2,1,3.2,1.3c1,0.3,1.8,0.7,2.6,0.9c1.5,0.4,2.3,0.8,2.3,0.8l0,0.5c0,0-0.9,0.3-2.5,0.6c-0.8,0.2-1.8,0.2-2.9,0.3
						c-1.1,0.1-2.4-0.1-3.8-0.3c-2.8-0.5-6-1.4-9-3.2c-1.5-0.9-2.9-2-4.3-3.2c-0.7-0.6-1.4-1.2-2-1.8l-1.9-2
						c-1.3-1.3-2.4-2.7-3.6-4.1c-1.1-1.4-2.1-2.8-3-4.2c-1-1.4-1.8-2.8-2.5-4.1c-0.8-1.3-1.3-2.7-1.9-3.9c-0.6-1.2-1-2.4-1.4-3.4
						c-0.4-1-0.7-1.9-0.9-2.6c-0.5-1.5-0.8-2.3-0.8-2.3L327.3,384.9z"/>
				</g>
			</g>
		</g>
	</g>
</g>
</svg>
