<?xml version="1.0" encoding="utf-8"?>
<!-- Generator: Adobe Illustrator 21.0.2, SVG Export Plug-In . SVG Version: 6.00 Build 0)  -->
<svg version="1.1" id="Layer_1" xmlns="http://www.w3.org/2000/svg" xmlns:xlink="http://www.w3.org/1999/xlink" x="0px" y="0px"
	 viewBox="0 0 498.2 68.7" style="enable-background:new 0 0 498.2 68.7;" xml:space="preserve">
<style type="text/css">
	.st0{fill:#FFFFFF;}
</style>
<g id="menu">
	<g>
		<path class="st0" d="M23.3,47.1c16.6,5.5,35.5,3.3,52.4,0.7c11.6-1.8,22.9-4.6,34.2-7.6c9-2.4,20.1-6,30.6-6.7
			c0.4,2.1,1,4.2,1.9,6.2c4.6,10.7,14.9,16.2,23.9,7.3c3.8-3.8-0.4-8.6-3.2-11.1c-5.2-4.6-12.4-5.4-19.1-5.4
			c-0.2-2.5,0.1-5.1,0.9-7.7c3.8-12.6,20-16.4,31.4-15.9c7.7,0.3,15.4,1.9,22.9,4.2c-12.5,9.5-13.9,31-5.7,43.7
			c5.2,8,12.2,12.7,21.7,13.7c8.4,0.9,17.2-2.4,19.3-11.2c3.7-15.9-24.1-16.6-24.2-1.5c0,1.1,1.9,1.3,2.4,0.5
			c3.3-5.4,10.1-12.6,16.4-5.8c3.3,3.6,0.5,9.7-2.4,12.3c-3.7,3.3-10.3,2.8-14.8,2.1c-13.5-2.1-19.6-17.2-19.7-29.3
			c-0.1-9.4,4.3-18,11.8-22.9c17,6.3,32.9,16.8,45.5,28.4c0.9,0.8,3.3-0.1,2.3-1.3c-0.4-0.5-0.9-0.9-1.3-1.4
			c2.3-22.9-24.7-37.2-44.5-30.8c-1.2,0.4-2.3,0.8-3.3,1.4c-0.2-0.1-0.5-0.2-0.7-0.2c-15.8-5.6-33.6-8.3-49.1-0.5
			c-9.6,4.8-13.7,13.3-12.9,22.5C118,31.8,96.2,41,74.5,44.5c-19.7,3.1-44.2,5.7-61.2-6.7C3.6,30.7,3,19.9,9.8,10.6
			c3.7-5,10-8.1,16.2-7.3c7.4,1,9.6,8.2,8.2,14.3c-1.2,1.8-2.4,3.6-3.6,5.3c-10.5,1.8-13.4,0.8-8.7-3.1c2.1-0.2,1.4-2.7-0.5-2.7
			c-12.8,0.1-2,11.1,6.2,10.7C40.8,27.2,42.9,7.2,31.8,2C19.6-3.8,7.7,3.9,2.1,15C-5.8,30.6,10.4,42.8,23.3,47.1z M212.2,9.4
			c18-4,30.6,10.5,35.2,25.8c-11.1-10.9-25.2-18.7-39.7-24.4C209.1,10.3,210.6,9.8,212.2,9.4z M156.4,35.8c6.9,2.5,5.7,6.3-3.8,11.4
			c-2.7-1.8-4.7-5.5-6.1-8.2c-0.9-1.8-1.6-3.7-2-5.5C148.7,33.6,152.7,34.3,156.4,35.8z"/>
	</g>
	<g>
		<path class="st0" d="M496.1,15c-5.6-11.1-17.6-18.8-29.7-13c-11.1,5.2-9,25.2,4.2,25.9c8.2,0.4,19-10.7,6.2-10.7
			c-1.8,0-2.6,2.4-0.5,2.7c4.6,3.9,1.7,5-8.7,3.1c-1.2-1.8-2.4-3.6-3.6-5.3c-1.4-6.1,0.8-13.2,8.2-14.3c6.3-0.9,12.5,2.2,16.2,7.3
			c6.9,9.2,6.3,20.1-3.4,27.2c-17.1,12.4-41.6,9.8-61.2,6.7c-21.8-3.5-43.5-12.7-65.6-13.8c0.8-9.2-3.3-17.7-12.9-22.5
			c-15.5-7.8-33.2-5.1-49.1,0.5c-0.2,0.1-0.5,0.2-0.7,0.2c-1-0.5-2.1-1-3.3-1.4c-19.8-6.4-46.8,8-44.5,30.8
			c-0.4,0.5-0.9,0.9-1.3,1.4c-1,1.2,1.4,2.1,2.3,1.3c12.6-11.6,28.5-22.1,45.5-28.4c7.5,4.8,11.9,13.5,11.8,22.9
			c-0.1,12.1-6.2,27.1-19.7,29.3c-4.5,0.7-11,1.2-14.8-2.1c-2.9-2.5-5.7-8.7-2.4-12.3c6.3-6.8,13.1,0.4,16.4,5.8
			c0.5,0.8,2.4,0.6,2.4-0.5c-0.1-15.1-28-14.4-24.2,1.5c2.1,8.8,10.9,12,19.3,11.2c9.5-1,16.5-5.7,21.7-13.7
			c8.2-12.7,6.8-34.1-5.7-43.7c7.5-2.4,15.2-3.9,22.9-4.2c11.4-0.5,27.6,3.3,31.4,15.9c0.8,2.6,1.1,5.2,0.9,7.7
			c-6.6,0-13.9,0.8-19.1,5.4c-2.8,2.5-7,7.4-3.2,11.1c9,8.9,19.3,3.4,23.9-7.3c0.9-2.1,1.5-4.2,1.9-6.2c10.5,0.6,21.6,4.3,30.6,6.7
			c11.3,3,22.6,5.8,34.2,7.6c16.9,2.6,35.8,4.8,52.4-0.7C487.8,42.8,504,30.6,496.1,15z M290.5,10.9c-14.5,5.6-28.6,13.5-39.7,24.4
			C255.4,20,268,5.4,286,9.4C287.6,9.8,289,10.3,290.5,10.9z M353.7,33.5c-0.4,1.8-1.1,3.7-2,5.5c-1.4,2.7-3.4,6.5-6.1,8.2
			c-9.4-5.1-10.7-8.9-3.8-11.4C345.5,34.3,349.5,33.6,353.7,33.5z"/>
	</g>
</g>
</svg>
